<?xml version="1.0" encoding="UTF-8" standalone="no"?>
<!DOCTYPE svg PUBLIC "-//W3C//DTD SVG 1.1//EN"
 "http://www.w3.org/Graphics/SVG/1.1/DTD/svg11.dtd">
<!-- Generated by graphviz version 14.1.1 (20251213.1925)
 -->
<!-- Pages: 1 -->
<svg width="170pt" height="188pt"
 viewBox="0.00 0.00 170.00 188.00" xmlns="http://www.w3.org/2000/svg" xmlns:xlink="http://www.w3.org/1999/xlink">
<g id="graph0" class="graph" transform="scale(1 1) rotate(0) translate(4 184)">
<polygon fill="white" stroke="none" points="-4,4 -4,-184 166,-184 166,4 -4,4"/>
<!-- 4536694192 -->
<g id="node1" class="node">
<title>4536694192</title>
<ellipse fill="none" stroke="black" cx="63" cy="-162" rx="27" ry="18"/>
<text xml:space="preserve" text-anchor="middle" x="63" y="-156.95" font-family="Times,serif" font-size="14.00">div</text>
</g>
<!-- 4536689536 -->
<g id="node2" class="node">
<title>4536689536</title>
<ellipse fill="none" stroke="black" cx="27" cy="-90" rx="27" ry="18"/>
<text xml:space="preserve" text-anchor="middle" x="27" y="-84.95" font-family="Times,serif" font-size="14.00">ep</text>
</g>
<!-- 4536694192&#45;&gt;4536689536 -->
<g id="edge1" class="edge">
<title>4536694192&#45;&gt;4536689536</title>
<path fill="none" stroke="black" d="M54.65,-144.76C50.42,-136.55 45.19,-126.37 40.42,-117.09"/>
<polygon fill="black" stroke="black" points="43.68,-115.79 36,-108.49 37.46,-118.99 43.68,-115.79"/>
</g>
<!-- 4536686704 -->
<g id="node3" class="node">
<title>4536686704</title>
<ellipse fill="none" stroke="black" cx="99" cy="-90" rx="27" ry="18"/>
<text xml:space="preserve" text-anchor="middle" x="99" y="-84.95" font-family="Times,serif" font-size="14.00">sub</text>
</g>
<!-- 4536694192&#45;&gt;4536686704 -->
<g id="edge4" class="edge">
<title>4536694192&#45;&gt;4536686704</title>
<path fill="none" stroke="black" d="M71.35,-144.76C75.58,-136.55 80.81,-126.37 85.58,-117.09"/>
<polygon fill="black" stroke="black" points="88.54,-118.99 90,-108.49 82.32,-115.79 88.54,-118.99"/>
</g>
<!-- 4536689008 -->
<g id="node4" class="node">
<title>4536689008</title>
<ellipse fill="none" stroke="black" cx="63" cy="-18" rx="27" ry="18"/>
<text xml:space="preserve" text-anchor="middle" x="63" y="-12.95" font-family="Times,serif" font-size="14.00">1</text>
</g>
<!-- 4536686704&#45;&gt;4536689008 -->
<g id="edge2" class="edge">
<title>4536686704&#45;&gt;4536689008</title>
<path fill="none" stroke="black" d="M90.65,-72.76C86.42,-64.55 81.19,-54.37 76.42,-45.09"/>
<polygon fill="black" stroke="black" points="79.68,-43.79 72,-36.49 73.46,-46.99 79.68,-43.79"/>
</g>
<!-- 4536685984 -->
<g id="node5" class="node">
<title>4536685984</title>
<ellipse fill="none" stroke="black" cx="135" cy="-18" rx="27" ry="18"/>
<text xml:space="preserve" text-anchor="middle" x="135" y="-12.95" font-family="Times,serif" font-size="14.00">np</text>
</g>
<!-- 4536686704&#45;&gt;4536685984 -->
<g id="edge3" class="edge">
<title>4536686704&#45;&gt;4536685984</title>
<path fill="none" stroke="black" d="M107.35,-72.76C111.58,-64.55 116.81,-54.37 121.58,-45.09"/>
<polygon fill="black" stroke="black" points="124.54,-46.99 126,-36.49 118.32,-43.79 124.54,-46.99"/>
</g>
</g>
</svg>
